<svg width="24" height="24" viewBox="0 0 24 24" fill="none" xmlns="http://www.w3.org/2000/svg">
<path fill-rule="evenodd" clip-rule="evenodd" d="M14.5 19.9999C14.7761 19.9999 15 20.2237 15 20.4999V21.4999C15 21.776 14.7761 21.9999 14.5 21.9999H9.5C9.22386 21.9999 9 21.776 9 21.4999V20.4999C9 20.2237 9.22386 19.9999 9.5 19.9999H14.5ZM13.5 1.5C13.7761 1.5 14 1.72386 14 2L14.0003 2.76025C17.4506 3.6771 20 6.91026 20 10.7581V16.5H21.5C21.7761 16.5 22 16.7239 22 17V18C22 18.2761 21.7761 18.5 21.5 18.5H2.5C2.22386 18.5 2 18.2761 2 18V17C2 16.7239 2.22386 16.5 2.5 16.5H4V10.7581C4 6.91007 6.54963 3.67679 10.0002 2.76012L10 2C10 1.72386 10.2239 1.5 10.5 1.5H13.5Z" fill="#86909C"/>
</svg>
